Coordinates
version=1
nRows=86
nColumns=19
inDegrees=yes

Units are S.I. units (second, meters, Newtons, ...)
Angles are in degrees.

endheader
time	1_Force_X	1_Force_Y	1_Force_Z	1_Moment_X	1_Moment_Y	1_Moment_Z	1_COP_X	1_COP_Y	1_COP_Z	2_Force_X	2_Force_Y	2_Force_Z	2_Moment_X	2_Moment_Y	2_Moment_Z	2_COP_X	2_COP_Y	2_COP_Z
0.2925	8.816	247.754	15.479	-32.060	4.988	15.549	61.502	0.000	126.514	-4.970	331.417	56.066	-43.551	-2.183	-0.708	-1.142	0.000	123.165
0.2950	8.484	256.428	14.970	-33.091	5.319	16.060	61.485	0.000	126.344	-5.107	337.432	57.494	-44.675	-2.322	-0.969	-1.869	0.000	124.097
0.2975	7.545	264.757	15.037	-34.014	5.444	16.537	61.523	0.000	125.843	-4.937	345.336	58.618	-45.553	-2.491	-1.142	-2.345	0.000	123.640
0.3000	7.085	275.343	14.703	-34.735	5.645	17.171	61.551	0.000	123.678	-5.157	353.410	59.438	-46.608	-2.650	-1.229	-2.501	0.000	123.683
0.3025	6.496	285.751	15.073	-35.703	5.771	17.649	61.086	0.000	122.498	-5.027	361.485	60.391	-47.640	-2.753	-1.576	-3.416	0.000	123.644
0.3050	5.697	293.904	15.445	-36.758	5.813	18.353	61.923	0.000	122.633	-4.679	370.595	61.612	-48.803	-2.829	-1.872	-4.165	0.000	123.579
0.3075	5.462	303.438	15.946	-37.837	5.929	18.795	61.480	0.000	122.258	-3.807	379.532	62.790	-49.788	-2.877	-2.185	-4.990	0.000	123.111
0.3100	4.751	313.324	17.152	-39.071	5.953	19.396	61.571	0.000	122.162	-3.242	388.127	64.057	-51.126	-2.897	-2.324	-5.298	0.000	123.672
0.3125	4.521	323.200	18.400	-40.394	5.986	19.821	61.048	0.000	122.348	-2.238	395.865	65.410	-52.200	-2.833	-2.915	-6.799	0.000	123.801
0.3150	3.631	335.522	19.824	-41.648	6.104	20.545	61.097	0.000	121.395	-1.364	405.491	66.508	-53.558	-2.808	-3.193	-7.416	0.000	124.076
0.3175	2.921	346.969	21.334	-43.013	6.120	21.269	61.272	0.000	121.127	-0.617	417.861	66.867	-54.871	-2.904	-3.245	-7.393	0.000	123.493
0.3200	2.607	359.978	23.150	-44.378	6.182	22.045	61.268	0.000	120.310	-0.003	429.893	67.924	-56.161	-2.888	-3.506	-7.851	0.000	122.910
0.3225	2.244	372.628	25.138	-46.187	6.235	22.612	60.765	0.000	120.836	1.350	440.038	69.552	-57.518	-2.788	-4.046	-9.030	0.000	122.979
0.3250	1.843	385.290	26.998	-47.552	6.279	23.389	60.843	0.000	120.187	2.229	452.065	70.133	-59.074	-2.837	-4.410	-9.678	0.000	123.078
0.3275	1.220	397.786	28.510	-48.716	6.378	24.183	61.010	0.000	119.165	2.802	463.751	70.754	-60.496	-2.822	-4.601	-9.895	0.000	122.971
0.3300	0.726	408.362	29.493	-49.950	6.421	24.766	60.922	0.000	118.988	3.546	474.236	71.809	-61.810	-2.796	-4.915	-10.402	0.000	122.909
0.3325	0.492	418.066	30.389	-51.119	6.472	25.121	60.390	0.000	118.924	4.461	484.210	73.433	-63.145	-2.733	-5.384	-11.239	0.000	122.972
0.3350	-0.137	427.445	30.369	-51.641	6.654	25.755	60.623	0.000	117.538	4.812	495.037	74.309	-64.371	-2.773	-5.524	-11.301	0.000	122.667
0.3375	-1.083	436.291	29.862	-52.366	6.760	26.091	60.270	0.000	116.868	5.379	503.978	75.753	-65.730	-2.719	-5.906	-11.906	0.000	123.047
0.3400	-1.634	444.610	29.001	-53.136	6.857	26.410	59.922	0.000	116.500	5.898	512.752	77.674	-66.846	-2.646	-6.394	-12.694	0.000	122.938
0.3425	-2.538	452.593	27.660	-53.528	7.000	26.763	59.742	0.000	115.445	6.552	520.486	78.674	-67.876	-2.666	-6.603	-12.960	0.000	122.995
0.3450	-3.176	460.225	26.538	-54.141	7.162	27.238	59.854	0.000	114.972	7.206	529.253	79.761	-68.795	-2.705	-6.811	-13.191	0.000	122.592
0.3475	-4.345	469.082	25.200	-54.377	7.334	27.609	59.634	0.000	113.434	7.208	537.670	80.232	-69.694	-2.828	-7.002	-13.335	0.000	122.298
0.3500	-4.813	476.544	23.640	-54.636	7.560	27.891	59.342	0.000	112.348	6.904	544.199	80.736	-70.307	-2.875	-7.350	-13.785	0.000	121.908
0.3525	-5.534	480.017	22.223	-54.765	7.673	28.067	59.351	0.000	111.938	7.210	548.665	81.061	-70.746	-2.960	-7.471	-13.917	0.000	121.685
0.3550	-5.692	484.866	20.622	-55.006	7.805	28.034	58.706	0.000	111.465	7.299	551.757	81.381	-71.009	-2.969	-7.905	-14.632	0.000	121.450
0.3575	-6.499	487.129	19.254	-54.958	7.927	28.192	58.834	0.000	110.976	6.998	552.608	80.551	-71.055	-3.081	-7.974	-14.708	0.000	121.414
0.3600	-7.132	490.430	17.928	-54.845	8.040	28.227	58.572	0.000	110.120	6.739	554.146	80.027	-70.902	-3.257	-8.077	-14.831	0.000	120.845
0.3625	-7.633	494.417	16.684	-54.953	8.079	28.334	58.363	0.000	109.565	6.527	555.684	79.111	-70.793	-3.359	-8.285	-15.146	0.000	120.388
0.3650	-8.621	499.450	15.439	-55.171	8.155	28.458	58.117	0.000	109.010	5.920	556.533	78.275	-70.553	-3.545	-8.302	-15.101	0.000	119.841
0.3675	-9.552	504.492	15.079	-55.233	8.186	28.810	58.322	0.000	108.076	5.404	557.209	76.874	-70.467	-3.703	-8.161	-14.789	0.000	119.657
0.3700	-10.176	509.351	14.937	-55.387	8.160	28.952	58.104	0.000	107.358	5.276	559.259	76.175	-70.183	-3.954	-8.403	-15.155	0.000	118.767
0.3725	-11.111	514.733	15.015	-55.804	8.218	29.112	57.892	0.000	107.039	4.890	561.140	75.124	-69.874	-4.085	-8.403	-15.070	0.000	117.903
0.3750	-11.162	518.715	15.266	-56.312	8.210	29.219	57.662	0.000	107.175	4.760	558.038	74.546	-69.727	-4.231	-8.627	-15.548	0.000	118.345
0.3775	-11.385	521.484	15.389	-56.578	8.118	29.291	57.514	0.000	107.104	4.195	557.342	73.836	-69.334	-4.370	-8.800	-15.832	0.000	117.847
0.3800	-11.260	526.164	15.685	-56.908	8.157	29.397	57.198	0.000	106.753	3.718	556.817	72.907	-68.831	-4.564	-8.782	-15.774	0.000	117.131
0.3825	-11.520	528.942	15.941	-57.105	8.094	29.767	57.621	0.000	106.543	3.242	555.604	71.803	-68.416	-4.713	-8.781	-15.768	0.000	116.732
0.3850	-11.041	532.410	16.151	-57.346	8.198	29.978	57.604	0.000	106.282	2.897	554.905	70.787	-67.891	-4.935	-8.901	-15.977	0.000	116.019
0.3875	-10.912	536.575	16.492	-57.718	8.275	30.313	57.772	0.000	106.121	2.859	555.408	69.647	-67.586	-5.139	-8.952	-16.050	0.000	115.458
0.3900	-10.251	542.997	17.313	-57.868	8.333	30.789	57.914	0.000	105.073	2.564	557.451	67.679	-67.346	-5.418	-8.846	-15.776	0.000	114.766
0.3925	-9.641	548.885	17.865	-58.528	8.392	31.107	57.825	0.000	105.103	2.576	560.529	66.115	-67.391	-5.576	-9.071	-16.089	0.000	114.341
0.3950	-8.492	551.828	19.085	-59.145	8.487	31.459	58.062	0.000	105.559	3.107	563.781	65.078	-67.435	-5.762	-9.243	-16.343	0.000	113.842
0.3975	-7.927	558.590	19.991	-59.782	8.620	31.794	57.918	0.000	105.347	2.685	566.859	63.427	-67.613	-5.902	-9.676	-16.982	0.000	113.669
0.4000	-7.352	564.494	21.122	-60.152	8.735	32.305	58.174	0.000	104.810	2.217	572.508	61.560	-67.724	-6.246	-9.761	-16.922	0.000	112.888
0.4025	-6.786	569.170	21.723	-60.659	8.802	32.482	57.965	0.000	104.791	2.180	576.106	60.783	-67.768	-6.405	-10.090	-17.383	0.000	112.319
0.4050	-6.658	572.471	22.377	-61.053	8.981	32.693	57.992	0.000	104.823	2.016	580.557	59.532	-68.145	-6.628	-10.453	-17.860	0.000	112.201
0.4075	-6.657	576.292	22.985	-61.315	9.020	33.010	58.160	0.000	104.535	1.811	586.728	58.065	-68.451	-6.805	-10.764	-18.183	0.000	111.654
0.4100	-7.065	580.460	23.021	-61.754	9.190	33.151	58.020	0.000	104.538	2.126	592.041	57.125	-68.826	-7.019	-11.110	-18.626	0.000	111.354
0.4125	-7.340	587.404	23.403	-62.126	9.305	33.399	57.781	0.000	103.905	1.484	598.901	55.879	-69.287	-7.178	-11.543	-19.084	0.000	110.938
0.4150	-8.441	592.800	23.882	-62.386	9.373	33.891	58.174	0.000	103.361	1.057	606.785	54.768	-69.905	-7.541	-11.854	-19.311	0.000	110.594
0.4175	-9.467	599.916	24.176	-62.915	9.422	34.034	57.803	0.000	102.992	0.628	614.508	54.446	-70.608	-7.700	-12.340	-19.823	0.000	110.366
0.4200	-10.445	607.039	24.649	-63.397	9.528	34.352	57.726	0.000	102.542	0.329	622.232	54.123	-71.178	-7.896	-12.704	-20.136	0.000	109.931
0.4225	-11.250	613.455	24.941	-64.190	9.587	34.547	57.504	0.000	102.741	-0.106	626.519	54.359	-71.775	-8.072	-13.363	-21.017	0.000	110.112
0.4250	-12.052	621.261	25.230	-64.851	9.600	34.901	57.414	0.000	102.491	-1.064	633.040	54.377	-72.260	-8.305	-13.814	-21.440	0.000	109.738
0.4275	-12.943	629.422	25.521	-65.487	9.688	35.378	57.495	0.000	102.151	-2.020	638.700	54.087	-72.702	-8.546	-14.230	-21.830	0.000	109.474
0.4300	-13.922	636.724	26.084	-65.835	9.840	35.678	57.381	0.000	101.487	-3.060	643.496	53.004	-73.013	-8.825	-14.437	-21.912	0.000	109.215
0.4325	-14.637	643.667	26.200	-66.405	9.937	36.066	57.419	0.000	101.269	-3.751	647.086	51.876	-73.216	-9.150	-14.800	-22.301	0.000	109.000
0.4350	-15.533	650.442	25.791	-66.754	10.079	36.366	57.349	0.000	100.778	-4.526	650.850	50.396	-73.261	-9.373	-15.112	-22.594	0.000	108.541
0.4375	-16.251	656.518	25.559	-67.148	10.194	36.595	57.221	0.000	100.462	-5.036	653.751	48.478	-73.198	-9.623	-15.579	-23.171	0.000	108.097
0.4400	-16.660	661.384	24.976	-67.364	10.364	36.930	57.336	0.000	100.088	-5.593	656.136	46.644	-73.137	-9.957	-15.716	-23.255	0.000	107.737
0.4425	-17.337	669.019	24.474	-67.779	10.460	37.248	57.207	0.000	99.600	-5.797	658.866	44.683	-73.095	-10.171	-16.061	-23.668	0.000	107.362
0.4450	-17.306	673.005	24.419	-68.242	10.592	37.302	56.948	0.000	99.701	-5.960	661.083	43.248	-73.142	-10.356	-16.650	-24.467	0.000	107.172
0.4475	-17.663	678.220	24.631	-68.348	10.688	37.654	57.056	0.000	99.076	-6.518	663.988	41.852	-72.968	-10.607	-16.892	-24.684	0.000	106.536
0.4500	-18.198	683.785	24.800	-68.409	10.811	37.953	57.068	0.000	98.348	-7.469	666.892	40.235	-72.861	-10.904	-16.995	-24.663	0.000	106.021
0.4525	-18.466	688.129	25.232	-68.671	10.888	38.218	57.112	0.000	98.079	-7.939	670.315	39.021	-73.083	-11.062	-17.376	-25.072	0.000	105.891
0.4550	-19.045	691.779	25.624	-68.890	10.982	38.254	56.903	0.000	97.852	-8.416	672.365	38.365	-72.865	-11.303	-17.635	-25.348	0.000	105.288
0.4575	-19.445	696.304	26.281	-68.997	11.105	38.465	56.865	0.000	97.327	-9.286	674.933	37.887	-72.934	-11.498	-17.895	-25.576	0.000	105.020
0.4600	-19.798	698.044	26.588	-69.084	11.143	38.536	56.848	0.000	97.189	-9.765	676.990	37.802	-72.869	-11.628	-18.207	-25.926	0.000	104.610
0.4625	-20.330	700.827	26.806	-69.061	11.154	38.589	56.734	0.000	96.755	-10.377	679.046	38.023	-72.916	-11.813	-18.589	-26.367	0.000	104.346
0.4650	-20.331	702.736	27.507	-69.392	11.211	38.607	56.607	0.000	96.918	-10.116	681.453	38.603	-73.135	-11.813	-18.936	-26.800	0.000	104.258
0.4675	-20.688	705.691	27.989	-69.458	11.258	38.590	56.371	0.000	96.574	-10.559	684.548	39.570	-73.112	-11.925	-19.180	-27.004	0.000	103.686
0.4700	-21.128	709.006	28.960	-69.410	11.408	38.731	56.335	0.000	95.993	-11.213	689.010	39.580	-73.399	-12.130	-19.231	-26.858	0.000	103.427
0.4725	-20.683	711.611	29.923	-69.541	11.438	38.960	56.424	0.000	95.763	-11.429	693.997	40.033	-73.569	-12.048	-19.597	-27.175	0.000	102.896
0.4750	-20.502	713.519	31.417	-69.961	11.457	38.996	56.313	0.000	96.001	-11.216	695.898	41.352	-73.609	-11.928	-19.824	-27.440	0.000	102.584
0.4775	-21.119	719.783	32.908	-70.266	11.590	39.296	56.281	0.000	95.495	-11.080	699.505	40.969	-73.649	-11.921	-19.859	-27.356	0.000	102.134
0.4800	-21.112	723.956	34.488	-70.529	11.630	39.595	56.372	0.000	95.208	-10.513	702.258	41.417	-73.667	-11.894	-19.981	-27.458	0.000	101.729
0.4825	-21.462	727.431	35.891	-71.102	11.697	39.807	56.417	0.000	95.453	-10.027	706.553	41.170	-73.728	-11.877	-20.068	-27.444	0.000	101.210
0.4850	-22.040	734.893	36.934	-71.520	11.672	39.933	56.055	0.000	94.989	-9.674	708.960	41.135	-73.680	-11.804	-20.259	-27.643	0.000	100.799
0.4875	-22.653	739.756	38.245	-72.093	11.656	40.285	56.203	0.000	95.058	-9.277	713.427	40.931	-73.696	-11.806	-20.363	-27.639	0.000	100.201
0.4900	-23.132	744.271	40.308	-72.778	11.659	40.445	56.108	0.000	95.275	-8.793	716.525	41.295	-73.823	-11.649	-20.659	-27.963	0.000	99.919
0.4925	-23.662	751.212	41.835	-73.506	11.662	40.694	55.956	0.000	95.271	-8.787	720.988	40.783	-73.841	-11.706	-20.867	-28.077	0.000	99.356
0.4950	-24.359	757.295	44.293	-74.079	11.637	40.942	55.879	0.000	95.115	-8.869	726.138	40.581	-74.059	-11.819	-21.162	-28.277	0.000	98.961
0.4975	-24.753	764.586	45.863	-74.740	11.631	41.383	55.950	0.000	94.978	-8.816	730.606	39.983	-74.118	-11.700	-21.336	-28.343	0.000	98.471
0.5000	-25.229	771.716	47.571	-74.934	11.634	41.912	56.149	0.000	94.252	-8.942	736.094	39.387	-74.337	-11.924	-21.405	-28.215	0.000	98.069
0.5025	-25.759	779.011	49.409	-75.506	11.703	42.160	55.976	0.000	93.996	-8.760	742.106	38.969	-74.485	-11.936	-21.630	-28.299	0.000	97.496
0.5050	-25.806	785.776	50.672	-75.947	11.706	42.320	55.704	0.000	93.674	-8.319	746.747	39.162	-74.634	-11.872	-22.030	-28.684	0.000	97.075
